<svg height="499pt" viewBox="-51 0 499 499.99005" width="499pt" xmlns="http://www.w3.org/2000/svg"><path d="m336.246094 317.875c-1.402344 0-2.8125-.488281-3.949219-1.484375-2.492187-2.179687-2.746094-5.972656-.566406-8.464844 36.921875-42.214843 55.34375-88.195312 54.75-136.671875l-1.125-91.722656c-.027344-2.105469-1.765625-3.816406-3.949219-3.777344-.78125-.007812-78.335938.1875-143.210938-62.660156-1.546874-1.5-4.035156-1.46875-5.546874.066406-63.347657 64.425782-140.859376 66.089844-141.632813 66.101563-1.050781.011719-2.03125.425781-2.761719 1.171875-.71875.726562-1.105468 1.6875-1.09375 2.699218l.710938 57.921876c.039062 3.3125-2.613282 6.03125-5.925782 6.074218-3.320312.03125-6.035156-2.613281-6.074218-5.929687l-.710938-57.921875c-.050781-4.234375 1.5625-8.234375 4.539063-11.261719 2.964843-3.015625 6.933593-4.703125 11.167969-4.753906.703124-.015625 73.960937-2.242188 133.226562-62.515625 6.113281-6.21875 16.183594-6.34375 22.449219-.273438 60.9375 59.03125 134.007812 59.265625 134.738281 59.28125h.195312c8.660157 0 15.773438 6.972656 15.878907 15.632813l1.125 91.722656c.628906 51.519531-18.789063 100.207031-57.714844 144.714844-1.1875 1.355469-2.847656 2.050781-4.519531 2.050781zm0 0" fill="#4d28a8"/><path d="m300.808594 185.492188c-.746094 0-75.824219-.722657-138.207032-62.640626-1.929687-1.921874-4.464843-2.878906-6.996093-2.878906-2.535157 0-5.066407.957032-7 2.878906-62.113281 61.644532-137.476563 62.640626-138.207031 62.640626-5.464844 0-9.902344 4.402343-9.902344 9.828124v91.730469c.003906 135.554688 144.53125 208.847657 150.683594 211.902344 1.390624.691406 2.910156 1.035156 4.425781 1.035156s3.039062-.34375 4.429687-1.035156c6.152344-3.054687 150.679688-76.347656 150.679688-211.90625v-91.726563c-.003906-5.425781-4.433594-9.828124-9.90625-9.828124zm0 0" fill="#0795ff"/><path d="m148.605469 122.851562c-62.113281 61.644532-137.476563 62.640626-138.207031 62.640626-5.46875 0-9.902344 4.402343-9.902344 9.828124v91.730469c.003906 135.554688 144.53125 208.847657 150.683594 211.902344 1.386718.691406 2.910156 1.035156 4.425781 1.035156v-380.015625c-2.535157 0-5.070313.957032-7 2.878906zm0 0" fill="#3eb6ff"/><path d="m129.535156 358.96875c-1.527344 0-3.054687-.582031-4.226562-1.742188l-34.476563-34.222656c-2.351562-2.335937-2.363281-6.136718-.03125-8.484375 2.335938-2.355469 6.136719-2.367187 8.484375-.03125l30.25 30.027344 82.382813-81.78125c2.351562-2.335937 6.152343-2.320313 8.484375.03125 2.335937 2.351563 2.320312 6.148437-.03125 8.484375l-86.609375 85.976562c-1.167969 1.160157-2.695313 1.742188-4.226563 1.742188zm0 0" fill="#dfe8f4"/></svg>