<svg height="512pt" viewBox="0 -45 512.001 512" width="512pt" xmlns="http://www.w3.org/2000/svg"><path d="m25.507812 422.921875h460.984376c14.066406 0 25.507812-11.441406 25.507812-25.507813v-371.90625c0-14.0625-11.441406-25.507812-25.507812-25.507812h-460.984376c-14.066406 0-25.507812 11.445312-25.507812 25.507812v371.910157c0 14.0625 11.441406 25.503906 25.507812 25.503906zm0 0" fill="#006dff"/><path d="m486.492188 0c14.066406 0 25.507812 11.445312 25.507812 25.507812v371.910157c0 14.066406-11.441406 25.507812-25.507812 25.507812h-230.492188v-422.925781zm0 0" fill="#0050c2"/><path d="m0 109.058594v288.359375c0 14.0625 11.441406 25.507812 25.507812 25.507812h460.984376c14.066406 0 25.507812-11.445312 25.507812-25.507812v-288.359375zm0 0" fill="#f0f8fc"/><path d="m512 109.058594v288.359375c0 14.0625-11.441406 25.507812-25.507812 25.507812h-230.492188v-313.867187zm0 0" fill="#d2ecff"/><path d="m456.78125 69.839844h-146.421875c-8.453125 0-15.308594-6.855469-15.308594-15.308594 0-8.457031 6.855469-15.3125 15.308594-15.3125h146.421875c8.457031 0 15.3125 6.855469 15.3125 15.3125 0 8.453125-6.855469 15.308594-15.3125 15.308594zm0 0" fill="#00de7b"/><path d="m144.058594 54.53125c0 11.816406-9.582032 21.394531-21.398438 21.394531s-21.398437-9.578125-21.398437-21.394531c0-11.820312 9.582031-21.398438 21.398437-21.398438s21.398438 9.578126 21.398438 21.398438zm0 0" fill="#fff474"/><path d="m81.9375 54.53125c0 11.816406-9.582031 21.394531-21.398438 21.394531-11.816406 0-21.394531-9.578125-21.394531-21.394531 0-11.820312 9.578125-21.398438 21.394531-21.398438 11.816407 0 21.398438 9.578126 21.398438 21.398438zm0 0" fill="#ff2c49"/><path d="m335.527344 330.308594c-4.222656 0-8.429688-1.738282-11.457032-5.148438-5.609374-6.324218-5.035156-16 1.289063-21.613281l42.316406-37.554687-42.316406-37.558594c-6.324219-5.609375-6.898437-15.289063-1.285156-21.613282 5.609375-6.324218 15.289062-6.902343 21.613281-1.285156l55.21875 49.003906c3.273438 2.90625 5.148438 7.074219 5.148438 11.453126 0 4.375-1.875 8.542968-5.148438 11.449218l-55.21875 49.007813c-2.917969 2.585937-6.546875 3.859375-10.160156 3.859375zm0 0" fill="#0050c2"/><path d="m176.472656 330.308594c-3.613281 0-7.242187-1.273438-10.160156-3.859375l-55.214844-49.007813c-3.277344-2.90625-5.148437-7.074218-5.148437-11.453125 0-4.375 1.875-8.542969 5.148437-11.449219l55.21875-49.007812c6.324219-5.613281 16-5.035156 21.613282 1.289062 5.613281 6.324219 5.035156 16-1.289063 21.613282l-42.316406 37.554687 42.316406 37.558594c6.324219 5.613281 6.902344 15.289063 1.289063 21.613281-3.027344 3.40625-7.234376 5.148438-11.457032 5.148438zm0 0" fill="#006dff"/><path d="m229.410156 330.308594c-2.597656 0-5.226562-.660156-7.640625-2.050782-7.320312-4.226562-9.832031-13.59375-5.601562-20.914062l53.144531-92.054688c4.226562-7.324218 13.59375-9.835937 20.914062-5.605468 7.324219 4.226562 9.832032 13.59375 5.605469 20.914062l-53.148437 92.054688c-2.832032 4.910156-7.980469 7.65625-13.273438 7.65625zm0 0" fill="#0050c2"/><path d="m216.167969 307.339844c-4.230469 7.324218-1.71875 16.6875 5.601562 20.914062 2.414063 1.394532 5.042969 2.054688 7.640625 2.054688 5.292969 0 10.441406-2.746094 13.277344-7.65625l13.3125-23.0625v-61.242188zm0 0" fill="#006dff"/></svg>