<svg height="512pt" viewBox="0 0 512 512" width="512pt" xmlns="http://www.w3.org/2000/svg"><path d="m472 256c0 119.292969-96.707031 216-216 216s-216-96.707031-216-216 96.707031-216 216-216 216 96.707031 216 216zm0 0" fill="#a6e7ff"/><path d="m376 256c0 66.273438-53.726562 120-120 120s-120-53.726562-120-120 53.726562-120 120-120 120 53.726562 120 120zm0 0" fill="#ff8a65"/><path d="m304 320h-96v-128h48l48 48zm0 0" fill="#ffe082"/><path d="m256 192v48h48zm0 0" fill="#ffd54f"/><g fill="#fff"><path d="m119.390625 210.535156-15.199219-5.0625c18.734375-56.691406 67.574219-98.167968 126.550782-107.472656l2.515624 15.792969c-53.074218 8.390625-97.011718 45.722656-113.867187 96.742187zm0 0"/><path d="m222.328125 412.464844c-55.289063-12.027344-100.164063-52.273438-118.121094-105.929688l15.199219-5.046875c16.167969 48.265625 56.53125 84.472657 106.265625 95.3125zm0 0"/><path d="m364 226.128906c-9.425781-33.5625-33.847656-60.878906-66.152344-73.984375l5.984375-14.847656c36.914063 14.976563 64.820313 46.195313 75.582031 84.550781zm0 0"/><path d="m370.769531 122.671875c-19.941406-17.167969-43.464843-29.671875-68.847656-36.601563l4.175781-15.4375c27.695313 7.550782 53.355469 21.191407 75.109375 39.917969zm0 0"/><path d="m396.800781 225.671875c-10.800781-49.773437-47.019531-90.183594-95.320312-106.34375l5.046875-15.199219c53.675781 17.960938 93.921875 62.867188 105.921875 118.183594zm0 0"/><path d="m289.679688 412.449219-3.351563-15.648438c55.335937-11.914062 98.558594-55.136719 110.472656-110.472656l15.648438 3.34375c-13.230469 61.5-61.269531 109.542969-122.769531 122.777344zm0 0"/></g><path d="m248 0h16v16h-16zm0 0"/><path d="m248 496h16v16h-16zm0 0"/><path d="m182.027344 10.746094 15.453125-4.144532 4.144531 15.453126-15.453125 4.144531zm0 0"/><path d="m310.53125 489.835938 15.457031-4.140626 4.144531 15.453126-15.457031 4.144531zm0 0"/><path d="m121.070312 38.296875 13.855469-8 8 13.855469-13.855469 8zm0 0"/><path d="m369.078125 467.84375 13.855469-8 8 13.855469-13.855469 8zm0 0"/><path d="m69.328125 80.640625 11.3125-11.3125 11.316406 11.3125-11.316406 11.3125zm0 0"/><path d="m420.054688 431.359375 11.3125-11.3125 11.3125 11.3125-11.3125 11.3125zm0 0"/><path d="m30.292969 134.925781 8-13.855469 13.859375 8-8.003906 13.859376zm0 0"/><path d="m459.84375 382.929688 8-13.855469 13.859375 8-8.003906 13.859375zm0 0"/><path d="m6.660156 197.511719 4.144532-15.457031 15.457031 4.144531-4.144531 15.453125zm0 0"/><path d="m485.886719 325.886719 4.144531-15.453125 15.453125 4.144531-4.144531 15.453125zm0 0"/><path d="m0 248h16v16h-16zm0 0"/><path d="m496 248h16v16h-16zm0 0"/><path d="m6.648438 314.535156 15.457031-4.140625 4.140625 15.453125-15.457032 4.144532zm0 0"/><path d="m485.746094 186.160156 15.457031-4.140625 4.140625 15.453125-15.457031 4.140625zm0 0"/><path d="m30.296875 377.070312 13.859375-7.996093 7.996094 13.855469-13.855469 8zm0 0"/><path d="m459.851562 129.070312 13.855469-7.996093 8 13.855469-13.859375 8zm0 0"/><path d="m69.332031 431.363281 11.3125-11.316406 11.3125 11.316406-11.3125 11.3125zm0 0"/><path d="m420.058594 80.636719 11.3125-11.3125 11.316406 11.3125-11.316406 11.316406zm0 0"/><path d="m121.074219 473.703125 8-13.855469 13.855469 8-7.996094 13.855469zm0 0"/><path d="m369.074219 44.152344 8-13.859375 13.855469 8-8 13.859375zm0 0"/><path d="m182.015625 501.210938 4.140625-15.453126 15.457031 4.140626-4.140625 15.453124zm0 0"/><path d="m310.390625 22.113281 4.140625-15.453125 15.457031 4.140625-4.140625 15.453125zm0 0"/><path d="m189.640625 41.960938 4.71875 15.285156c78.570313-24.214844 164.039063.007812 218.226563 61.84375l-25.105469 19.917968 5.121093 6.289063c23.714844 29.160156 37.460938 65.15625 39.214844 102.703125h-63.816406v8c-.097656 50.332031-33.65625 94.460938-82.136719 108l4.273438 15.414062c52.550781-14.679687 90.09375-60.964843 93.617187-115.414062h64.246094v-8c-.050781-41.226562-13.375-81.339844-38.007812-114.398438l25.3125-20.089843-5.082032-6.28125c-57.699218-71.265625-152.949218-100.277344-240.582031-73.269531zm0 0"/><path d="m222.617188 445.078125 2.765624-15.757813c-35.890624-6.316406-68.921874-23.652343-94.511718-49.601562l-5.648438-5.6875-22.558594 22.511719c-41.023437-44.746094-60.453124-105.179688-53.191406-165.449219 7.265625-60.269531 40.496094-114.359375 90.976563-148.078125l-8.898438-13.296875c-55.609375 37.15625-91.707031 97.214844-98.425781 163.757812-6.714844 66.542969 16.652344 132.605469 63.714844 180.125l5.65625 5.710938 22.792968-22.761719c27.054688 25.265625 60.867188 42.125 97.328126 48.527344zm0 0"/><path d="m156.527344 110.863281-9.054688-13.183593c-47.429687 32.390624-77.800781 84.375-82.71875 141.601562l-.753906 8.71875h80.121094l.925781-6.945312c7.597656-55.5 54.9375-96.910157 110.953125-97.054688 3.199219 0 6.300781.148438 9.304688.441406l8.328124.796875 4.199219-80-7.664062-.695312c-4.398438-.351563-9.03125-.542969-14.167969-.542969-24.679688-.046875-49.136719 4.710938-72 14.007812l-17.296875-26.398437-13.375 8.796875 24.695313 37.714844 6.222656-2.792969c22.558594-10.144531 47.019531-15.367187 71.753906-15.328125 1.742188 0 3.414062 0 5.03125.070312l-2.519531 47.929688c-.800781 0-1.671875 0-2.511719 0-61.367188.167969-114.035156 43.746094-125.679688 104h-48.664062c6.710938-49.148438 33.910156-93.15625 74.871094-121.136719zm0 0"/><path d="m348.679688 405.695312-6.769532 3.816407c-23.871094 13.421875-50.554687 21.058593-77.910156 22.304687v-63.816406h-8c-56.015625-.144531-103.355469-41.554688-110.953125-97.054688l-.925781-6.945312h-80.121094l.753906 8.6875c2.859375 32.953125 14.222656 64.601562 32.972656 91.847656l13.183594-9.070312c-15.503906-22.527344-25.519531-48.371094-29.246094-75.464844h48.65625c11.089844 57.308594 59.433594 99.929688 117.679688 103.753906v64.246094h8c30.214844-.007812 59.996094-7.160156 86.921875-20.871094l8.277344 13.765625c-70.210938 36.1875-154.859375 29.46875-218.488281-17.335937l-9.488282 12.882812c71.109375 52.316406 166.328125 57.957032 243.113282 14.398438l7.113281-4.054688zm0 0"/><path d="m259.3125 184h-59.3125v144h112v-91.3125zm4.6875 27.3125 20.6875 20.6875h-20.6875zm32 100.6875h-80v-112h32v48h48zm0 0"/><path d="m447.550781 139.839844-13.671875 8.320312c50.742188 83.699219 36.234375 191.449219-34.832031 258.75l-8.480469-14.109375c28.453125-27.996093 47.507813-64.140625 54.53125-103.433593l-15.761718-2.773438c-6.796876 38.035156-25.886719 72.789062-54.34375 98.925781l-4.800782 4.425781 25.074219 41.648438 7.199219-6.203125c82.726562-71.425781 101.800781-192.144531 45.128906-285.597656zm0 0"/></svg>