<svg height="500pt" viewBox="-20 0 500 500" width="500pt" xmlns="http://www.w3.org/2000/svg"><path d="m438.980469 356.625h-140.765625c-12.359375 0-22.386719 10.074219-22.359375 22.460938v98.476562c0 12.386719 10.054687 22.4375 22.414062 22.4375l139.371094-.082031c12.359375 0 22.386719-10.046875 22.359375-22.433594v-98.503906c0-11.90625-9.304688-21.628907-21.019531-22.355469zm0 0" fill="#3eb6ff"/><path d="m438.980469 356.625h-71.054688v143.335938l69.714844-.039063c12.359375 0 22.386719-10.050781 22.359375-22.4375v-98.503906c0-11.90625-9.304688-21.628907-21.019531-22.355469zm0 0" fill="#0795ff"/><path d="m378.929688 433.085938.007812 18.648437c.003906 5.53125-4.46875 10.015625-9.988281 10.015625-5.515625.003906-9.992188-4.476562-9.996094-10.007812l-.011719-18.648438c-9.148437-5.621094-12.882812-18.542969-4.480468-29.136719 3.300781-4.15625 8.460937-6.390625 13.757812-6.390625 8.15625 0 15.796875 4.8125 18.640625 12.472656 3.359375 9.050782-.488281 18.464844-7.929687 23.046876zm0 0" fill="#ffde93"/><path d="m386.859375 410.039062c-2.84375-7.660156-10.484375-12.472656-18.640625-12.472656-.097656 0-.195312.015625-.292969.019532v64.113281c.339844.035156.679688.054687 1.023438.054687 5.519531 0 9.992187-4.488281 9.988281-10.019531l-.007812-18.644531c7.441406-4.585938 11.289062-14 7.929687-23.050782zm0 0" fill="#ffbb1b"/><path d="m422.261719 345.257812c-3.402344 0-6.164063-2.753906-6.164063-6.148437 0-26.632813-21.609375-48.304687-48.171875-48.304687s-48.171875 21.667968-48.171875 48.304687c0 3.394531-2.757812 6.148437-6.160156 6.148437s-6.160156-2.753906-6.160156-6.148437c0-33.414063 27.136718-60.597656 60.492187-60.597656s60.496094 27.183593 60.496094 60.597656c0 3.394531-2.761719 6.148437-6.160156 6.148437zm0 0" fill="#4d28a8"/><path d="m299.667969 245.558594h-109.597657c-8.847656 0-16.023437 7.699218-16.023437 17.199218v117.652344c0 7.957032 8.964844 11.945313 14.207031 6.316406l117.296875-125.921874c5.242188-5.625 1.53125-15.246094-5.882812-15.246094zm0 0" fill="#ffbb1b"/><path d="m282.082031 0h-256.160156c-14.316406 0-25.921875 11.628906-25.921875 25.976562v337.40625c0 14.347657 11.605469 25.960938 25.921875 25.960938h146.449219l11.941406-.183594c-4.800781 1.054688-9.757812-2.679687-9.757812-8.75v-117.652344c0-9.5 6.667968-16.855468 15.519531-16.855468h109.59375c5.3125 0 8.71875 4.769531 8.296875 9.640625l.070312-.234375v-229.332032c0-14.347656-11.636718-25.976562-25.953125-25.976562zm0 0" fill="#dfe8f4"/><g fill="#623add"><path d="m135.0625 287.996094h-80.035156c-3.402344 0-6.160156-2.753906-6.160156-6.148438 0-3.394531 2.757812-6.148437 6.160156-6.148437h80.035156c3.402344 0 6.160156 2.753906 6.160156 6.148437 0 3.394532-2.757812 6.148438-6.160156 6.148438zm0 0"/><path d="m135.0625 256.160156h-80.035156c-3.402344 0-6.160156-2.75-6.160156-6.144531 0-3.398437 2.757812-6.148437 6.160156-6.148437h80.035156c3.402344 0 6.160156 2.75 6.160156 6.148437 0 3.394531-2.757812 6.144531-6.160156 6.144531zm0 0"/><path d="m135.0625 319.828125h-80.035156c-3.402344 0-6.160156-2.75-6.160156-6.144531 0-3.398438 2.757812-6.148438 6.160156-6.148438h80.035156c3.402344 0 6.160156 2.75 6.160156 6.148438 0 3.394531-2.757812 6.144531-6.160156 6.144531zm0 0"/></g></svg>