<?xml version="1.0" encoding="iso-8859-1"?>
<!-- Generator: Adobe Illustrator 19.0.0, SVG Export Plug-In . SVG Version: 6.00 Build 0)  -->
<svg version="1.1" id="Capa_1" xmlns="http://www.w3.org/2000/svg" xmlns:xlink="http://www.w3.org/1999/xlink" x="0px" y="0px"
	 viewBox="0 0 464 464" style="enable-background:new 0 0 464 464;" xml:space="preserve">
<g>
	<path style="fill:#263238;" d="M299.992,276h-96c-2.208,0-4-1.792-4-4s1.792-4,4-4h96c2.208,0,4,1.792,4,4S302.2,276,299.992,276z"
		/>
	<path style="fill:#263238;" d="M299.992,316h-96c-2.208,0-4-1.792-4-4s1.792-4,4-4h96c2.208,0,4,1.792,4,4S302.2,316,299.992,316z"
		/>
</g>
<path style="fill:#FF5252;" d="M333.288,317.288v67.88l19.8-19.8l28.288,28.288c3.128,3.128,8.192,3.128,11.312,0l16.968-16.968
	c3.128-3.128,3.128-8.192,0-11.312l-28.288-28.288l19.8-19.8L333.288,317.288L333.288,317.288z"/>
<path style="fill:#263238;" d="M387.032,399.992c-3.072,0-6.152-1.168-8.488-3.504l-25.456-25.456L336.12,388
	c-1.152,1.152-2.872,1.488-4.36,0.864c-1.496-0.616-2.472-2.08-2.472-3.696v-67.88c0-2.208,1.792-4,4-4h67.88
	c1.616,0,3.08,0.976,3.696,2.472s0.272,3.216-0.864,4.36l-16.968,16.968l25.456,25.464c4.68,4.68,4.68,12.288,0,16.968
	l-16.968,16.968C393.176,398.824,390.104,399.992,387.032,399.992z M353.096,361.376c1.024,0,2.048,0.392,2.832,1.168l28.28,28.28
	c1.56,1.56,4.096,1.56,5.656,0l16.968-16.968c1.56-1.56,1.56-4.096,0-5.656l-28.28-28.288c-1.56-1.56-1.56-4.096,0-5.656
	l12.968-12.968h-54.224v54.224l12.976-12.968C351.048,361.768,352.072,361.376,353.096,361.376z"/>
<polygon style="fill:#FFD740;" points="163.992,116 139.992,100 115.992,116 115.992,52 163.992,52 "/>
<g>
	<path style="fill:#263238;" d="M163.992,120c-0.776,0-1.544-0.224-2.216-0.672l-21.784-14.52l-21.784,14.52
		c-1.232,0.816-2.808,0.888-4.112,0.192c-1.296-0.696-2.112-2.048-2.112-3.52V52c0-2.208,1.792-4,4-4h48c2.208,0,4,1.792,4,4v64
		c0,1.48-0.816,2.832-2.112,3.52C165.288,119.84,164.64,120,163.992,120z M139.992,96c0.776,0,1.544,0.224,2.216,0.672
		l17.784,11.848V56h-40v52.52l17.784-11.848C138.448,96.224,139.216,96,139.992,96z"/>
	<path style="fill:#263238;" d="M124,400H44c-11.032,0-20-9.216-20-20.552V316.56C24,305.216,32.968,296,44,296h80
		c11.032,0,20,9.216,20,20.552v62.888C144,390.784,135.032,400,124,400z M44,304c-6.616,0-12,5.632-12,12.552v62.888
		c0,6.928,5.384,12.56,12,12.56h80c6.616,0,12-5.632,12-12.552V316.56c0-6.928-5.384-12.56-12-12.56H44z"/>
	<path style="fill:#263238;" d="M124,304h-24c-2.208,0-4-1.792-4-4v-28c0-2.2-1.8-4-4-4H76c-2.2,0-4,1.8-4,4v28c0,2.208-1.792,4-4,4
		H44c-2.208,0-4-1.792-4-4v-28c0-19.848,16.152-36,36-36h16c19.848,0,36,16.152,36,36v28C128,302.208,126.208,304,124,304z M104,296
		h16v-24c0-15.44-12.56-28-28-28H76c-15.44,0-28,12.56-28,28v24h16v-24c0-6.616,5.384-12,12-12h16c6.616,0,12,5.384,12,12V296z"/>
</g>
<path style="fill:#40C4FF;" d="M371.992,240h-160c-4.416,0-8-3.584-8-8v-56c0-4.416,3.584-8,8-8h160c4.416,0,8,3.584,8,8v56
	C379.992,236.416,376.416,240,371.992,240z"/>
<g>
	<path style="fill:#263238;" d="M371.992,244h-160c-6.616,0-12-5.384-12-12v-56c0-6.616,5.384-12,12-12h160c6.616,0,12,5.384,12,12
		v56C383.992,238.616,378.608,244,371.992,244z M211.992,172c-2.2,0-4,1.8-4,4v56c0,2.2,1.8,4,4,4h160c2.2,0,4-1.8,4-4v-56
		c0-2.2-1.8-4-4-4H211.992z"/>
	<path style="fill:#263238;" d="M355.992,305.288c-2.208,0-4-1.792-4-4V256c0-2.208,1.792-4,4-4s4,1.792,4,4v45.288
		C359.992,303.504,358.2,305.288,355.992,305.288z"/>
	<path style="fill:#263238;" d="M335.992,440h-248c-13.232,0-24-10.768-24-24v-4c0-2.208,1.792-4,4-4s4,1.792,4,4v4
		c0,8.824,7.176,16,16,16h248c8.824,0,16-7.176,16-16v-25.088c0-2.208,1.792-4,4-4s4,1.792,4,4V416
		C359.992,429.232,349.224,440,335.992,440z"/>
	<path style="fill:#263238;" d="M67.992,228.672c-2.208,0-4-1.792-4-4V72c0-13.232,10.768-24,24-24h248c13.232,0,24,10.768,24,24v80
		c0,2.208-1.792,4-4,4s-4-1.792-4-4V72c0-8.824-7.176-16-16-16h-248c-8.824,0-16,7.176-16,16v152.672
		C71.992,226.88,70.2,228.672,67.992,228.672z"/>
	<path style="fill:#263238;" d="M255.992,208h-24c-2.208,0-4-1.792-4-4s1.792-4,4-4h24c2.208,0,4,1.792,4,4S258.2,208,255.992,208z"
		/>
	<path style="fill:#263238;" d="M303.992,208h-24c-2.208,0-4-1.792-4-4s1.792-4,4-4h24c2.208,0,4,1.792,4,4S306.2,208,303.992,208z"
		/>
	<path style="fill:#263238;" d="M351.992,208h-24c-2.208,0-4-1.792-4-4s1.792-4,4-4h24c2.208,0,4,1.792,4,4S354.2,208,351.992,208z"
		/>
	<path style="fill:#263238;" d="M152,32h-8c-2.208,0-4-1.792-4-4s1.792-4,4-4h8c2.208,0,4,1.792,4,4S154.208,32,152,32z"/>
	<path style="fill:#263238;" d="M296,32H168c-2.208,0-4-1.792-4-4s1.792-4,4-4h128c2.208,0,4,1.792,4,4S298.208,32,296,32z"/>
	<path style="fill:#263238;" d="M296,464h-8c-2.208,0-4-1.792-4-4s1.792-4,4-4h8c2.208,0,4,1.792,4,4S298.208,464,296,464z"/>
	<path style="fill:#263238;" d="M272,464H144c-2.208,0-4-1.792-4-4s1.792-4,4-4h128c2.208,0,4,1.792,4,4S274.208,464,272,464z"/>
	<path style="fill:#263238;" d="M384,24h-32c-2.208,0-4-1.792-4-4s1.792-4,4-4h32c2.208,0,4,1.792,4,4S386.208,24,384,24z"/>
	<path style="fill:#263238;" d="M368,40c-2.208,0-4-1.792-4-4V4c0-2.208,1.792-4,4-4s4,1.792,4,4v32C372,38.208,370.208,40,368,40z"
		/>
	<path style="fill:#263238;" d="M436,76h-32c-2.208,0-4-1.792-4-4s1.792-4,4-4h32c2.208,0,4,1.792,4,4S438.208,76,436,76z"/>
	<path style="fill:#263238;" d="M420,92c-2.208,0-4-1.792-4-4V56c0-2.208,1.792-4,4-4s4,1.792,4,4v32C424,90.208,422.208,92,420,92z
		"/>
	<path style="fill:#263238;" d="M331.992,120c-2.208,0-4-1.792-4-4V84c0-2.2-1.8-4-4-4h-32c-2.208,0-4-1.792-4-4s1.792-4,4-4h32
		c6.616,0,12,5.384,12,12v32C335.992,118.208,334.2,120,331.992,120z"/>
</g>
<g>
</g>
<g>
</g>
<g>
</g>
<g>
</g>
<g>
</g>
<g>
</g>
<g>
</g>
<g>
</g>
<g>
</g>
<g>
</g>
<g>
</g>
<g>
</g>
<g>
</g>
<g>
</g>
<g>
</g>
</svg>
