<svg height="512pt" viewBox="0 -26 512 512" width="512pt" xmlns="http://www.w3.org/2000/svg"><g fill-rule="evenodd"><path d="m353.101562 379.585938h141.242188v17.65625c0 14.625-11.855469 26.480468-26.480469 26.480468h-88.277343c-14.625 0-26.484376-11.855468-26.484376-26.480468zm0 0" fill="#eb5463"/><path d="m397.242188 282.484375h52.964843v61.792969h-52.964843zm0 0" fill="#cad0d7"/><path d="m353.101562 17.65625v423.722656c-.027343 9.738282-7.914062 17.625-17.652343 17.65625h-317.792969c-9.738281-.03125-17.6289062-7.917968-17.65625-17.65625v-353.101562l88.277344-88.277344h247.171875c9.738281.0273438 17.625 7.917969 17.652343 17.65625zm0 0" fill="#e4e8eb"/><path d="m88.277344 0v70.621094c-.03125 9.738281-7.917969 17.625-17.65625 17.65625h-70.621094zm0 0" fill="#5e8faa"/><path d="m97.101562 326.621094h158.898438c9.75 0 17.65625 7.902344 17.65625 17.65625v35.308594c0 9.75-7.90625 17.65625-17.65625 17.65625h-158.898438c-9.75 0-17.652343-7.90625-17.652343-17.65625v-35.308594c0-9.753906 7.902343-17.65625 17.652343-17.65625zm0 0" fill="#eb5463"/><path d="m503.171875 167.722656c.007813 28.308594-15.0625 54.476563-39.546875 68.679688-2.78125 1.570312-4.523438 4.488281-4.589844 7.679687v38.402344c0 4.875-3.953125 8.824219-8.828125 8.824219h-52.964843c-4.875 0-8.828126-3.949219-8.828126-8.824219v-38.402344c-.066406-3.191406-1.8125-6.109375-4.589843-7.679687-13.132813-7.632813-23.796875-18.878906-30.722657-32.398438-11.769531-22.753906-11.769531-49.804687 0-72.5625 13.9375-27.210937 42.265626-44.003906 72.828126-43.164062 42.816406 1.644531 76.804687 36.601562 77.242187 79.445312zm0 0" fill="#a38671"/><path d="m344.277344 335.449219h158.894531c4.875 0 8.828125 3.953125 8.828125 8.828125v35.308594c0 4.875-3.953125 8.828124-8.828125 8.828124h-158.894531c-4.875 0-8.828125-3.953124-8.828125-8.828124v-35.308594c0-4.875 3.953125-8.828125 8.828125-8.828125zm0 0" fill="#a38671"/><g fill="#365972"><path d="m300.136719 158.898438h-247.171875c-4.875 0-8.828125-3.953126-8.828125-8.828126s3.953125-8.828124 8.828125-8.828124h247.171875c4.875 0 8.828125 3.953124 8.828125 8.828124s-3.953125 8.828126-8.828125 8.828126zm0 0"/><path d="m300.136719 203.035156h-44.136719c-4.875 0-8.828125-3.953125-8.828125-8.828125s3.953125-8.828125 8.828125-8.828125h44.136719c4.875 0 8.828125 3.953125 8.828125 8.828125s-3.953125 8.828125-8.828125 8.828125zm0 0"/><path d="m211.863281 203.035156h-158.898437c-4.875 0-8.828125-3.953125-8.828125-8.828125s3.953125-8.828125 8.828125-8.828125h158.898437c4.875 0 8.828125 3.953125 8.828125 8.828125s-3.953125 8.828125-8.828125 8.828125zm0 0"/><path d="m97.101562 247.171875h-44.136718c-4.875 0-8.828125-3.953125-8.828125-8.828125s3.953125-8.828125 8.828125-8.828125h44.136718c4.878907 0 8.828126 3.953125 8.828126 8.828125s-3.949219 8.828125-8.828126 8.828125zm0 0"/><path d="m300.136719 247.171875h-158.894531c-4.875 0-8.828126-3.953125-8.828126-8.828125s3.953126-8.828125 8.828126-8.828125h158.894531c4.875 0 8.828125 3.953125 8.828125 8.828125s-3.953125 8.828125-8.828125 8.828125zm0 0"/></g><path d="m123.585938 370.757812h-8.828126c-4.875 0-8.828124-3.953124-8.828124-8.828124s3.953124-8.828126 8.828124-8.828126h8.828126c4.875 0 8.828124 3.953126 8.828124 8.828126s-3.953124 8.828124-8.828124 8.828124zm0 0" fill="#f4f6f8"/><path d="m238.34375 370.757812h-79.445312c-4.878907 0-8.828126-3.953124-8.828126-8.828124s3.949219-8.828126 8.828126-8.828126h79.445312c4.875 0 8.828125 3.953126 8.828125 8.828126s-3.953125 8.828124-8.828125 8.828124zm0 0" fill="#f4f6f8"/><path d="m88.277344 0v26.484375l-61.792969 61.792969h-26.484375zm0 0" fill="#457393"/><path d="m44.136719 459.035156h-26.480469c-9.738281-.03125-17.6289062-7.917968-17.65625-17.65625v-353.101562h26.484375v353.101562c.027344 9.738282 7.914063 17.625 17.652344 17.65625zm0 0" fill="#cad0d7"/><path d="m114.757812 0-26.480468 26.484375v-26.484375zm0 0" fill="#cad0d7"/><path d="m397.242188 291.308594h26.480468v44.140625h-26.480468zm0 0" fill="#a9b0bb"/><path d="m423.722656 291.308594h-26.480468c-4.875 0-8.828126-3.949219-8.828126-8.824219v-38.402344c-.066406-3.191406-1.8125-6.109375-4.589843-7.679687-13.132813-7.632813-23.796875-18.878906-30.722657-32.398438-11.769531-22.753906-11.769531-49.804687 0-72.5625 13.9375-27.210937 42.265626-44.003906 72.828126-43.164062 3.734374.066406 7.457031.449218 11.125 1.144531-32.976563 5.578125-58.925782 31.210937-64.914063 64.113281s9.269531 66.03125 38.164063 82.867188c2.78125 1.570312 4.527343 4.488281 4.59375 7.679687v38.402344c0 4.875 3.949218 8.824219 8.824218 8.824219zm0 0" fill="#937661"/><path d="m370.757812 388.414062h-26.480468c-4.875 0-8.828125-3.953124-8.828125-8.828124v-35.308594c0-4.875 3.953125-8.828125 8.828125-8.828125h26.480468c-4.875 0-8.828124 3.953125-8.828124 8.828125v35.308594c0 4.875 3.953124 8.828124 8.828124 8.828124zm0 0" fill="#937661"/><path d="m406.070312 423.722656h-26.484374c-14.625 0-26.484376-11.855468-26.484376-26.480468v-8.828126h26.484376v8.828126c0 14.625 11.855468 26.480468 26.484374 26.480468zm0 0" fill="#d94452"/></g></svg>