<?xml version="1.0" encoding="iso-8859-1"?>
<!-- Generator: Adobe Illustrator 19.0.0, SVG Export Plug-In . SVG Version: 6.00 Build 0)  -->
<svg version="1.1" id="Capa_1" xmlns="http://www.w3.org/2000/svg" xmlns:xlink="http://www.w3.org/1999/xlink" x="0px" y="0px"
	 viewBox="0 0 504.418 504.418" style="enable-background:new 0 0 504.418 504.418;" xml:space="preserve">
<polygon style="fill:#2EA0DA;" points="55.926,456.186 87.434,487.694 118.942,456.186 150.449,487.694 181.957,456.186 
	213.465,487.694 244.972,456.186 276.48,487.694 307.988,456.186 356.037,496.358 356.037,7.989 7.877,7.989 7.877,496.358 "/>
<path style="fill:#183651;" d="M350.523,502.66l-42.535-35.446l-25.994,25.994c-3.151,3.151-7.877,3.151-11.028,0l-25.994-25.994
	l-25.994,25.994c-3.151,3.151-7.877,3.151-11.028,0l-25.994-25.994l-25.994,25.994c-3.151,3.151-7.877,3.151-11.028,0
	l-25.994-25.994l-25.994,25.994c-3.151,3.151-7.877,3.151-11.028,0l-25.994-25.994L13.391,502.66
	c-2.363,1.575-5.514,2.363-8.665,0.788C1.575,501.872,0,499.509,0,496.358V7.989c0-4.726,3.151-7.877,7.877-7.877h348.16
	c4.726,0,7.877,3.151,7.877,7.877v488.369c0,3.151-1.575,5.514-4.726,7.089C356.037,505.023,352.886,504.235,350.523,502.66z
	 M307.988,448.309c1.575,0,3.938,0.788,4.726,1.575l35.446,29.145V15.866H15.754v463.951L51.2,449.884
	c3.151-2.363,7.877-2.363,10.24,0.788l25.994,25.994l25.994-25.994c3.151-3.151,7.877-3.151,11.028,0l25.994,25.994l25.994-25.994
	c3.151-3.151,7.877-3.151,11.028,0l25.994,25.994l25.994-25.994c3.151-3.151,7.877-3.151,11.028,0l25.994,25.994l25.994-25.994
	C303.262,449.097,305.625,448.309,307.988,448.309z"/>
<polygon style="fill:#FFFFFF;" points="181.957,411.288 150.449,442.795 118.942,411.288 87.434,442.795 57.502,413.651 
	39.385,428.617 39.385,39.497 324.529,39.497 324.529,428.617 305.625,413.651 276.48,442.795 244.972,411.288 213.465,442.795 "/>
<g>
	<rect x="180.382" y="159.226" style="fill:#183651;" width="15.754" height="15.754"/>
	<rect x="233.945" y="159.226" style="fill:#183651;" width="15.754" height="15.754"/>
	<rect x="286.72" y="159.226" style="fill:#183651;" width="15.754" height="15.754"/>
	<rect x="180.382" y="297.072" style="fill:#183651;" width="15.754" height="15.754"/>
	<rect x="233.945" y="297.072" style="fill:#183651;" width="15.754" height="15.754"/>
	<rect x="286.72" y="297.072" style="fill:#183651;" width="15.754" height="15.754"/>
</g>
<rect x="356.037" y="55.251" style="fill:#FFFFFF;" width="140.209" height="92.16"/>
<path style="fill:#183651;" d="M496.246,155.288H356.037c-4.726,0-7.877-3.151-7.877-7.877v-92.16c0-4.726,3.151-7.877,7.877-7.877
	h140.209c4.726,0,7.877,3.151,7.877,7.877v92.16C504.123,152.137,500.972,155.288,496.246,155.288z M363.914,139.534h124.455V63.128
	H363.914V139.534z"/>
<polygon style="fill:#FFFFFF;" points="356.037,147.411 426.142,86.758 496.246,147.411 "/>
<path style="fill:#183651;" d="M496.246,155.288H356.037c-3.151,0-6.302-2.363-7.089-5.514c-0.788-3.151,0-6.302,2.363-8.665
	l70.105-60.652c3.151-2.363,7.089-2.363,10.24,0l70.105,60.652c2.363,2.363,3.151,5.514,2.363,8.665
	C502.548,153.712,499.397,155.288,496.246,155.288z M377.305,139.534h98.462l-48.837-42.535L377.305,139.534z"/>
<polygon style="fill:#E0E4E8;" points="496.246,55.251 426.142,119.054 356.037,55.251 "/>
<path style="fill:#183651;" d="M426.142,126.931c-1.575,0-3.938-0.788-5.514-2.363l-70.105-63.015
	c-2.363-2.363-3.151-5.514-2.363-8.665c0.788-3.151,3.938-4.726,7.089-4.726h140.209c3.151,0,6.302,2.363,7.089,4.726
	c0.788,3.151,0,6.302-2.363,8.665l-70.105,63.803C430.08,126.143,427.717,126.931,426.142,126.931z M375.729,63.128l49.625,44.898
	l49.625-44.898H375.729z"/>
<rect x="356.037" y="191.521" style="fill:#FFFFFF;" width="140.209" height="92.16"/>
<path style="fill:#183651;" d="M496.246,290.771H356.037c-4.726,0-7.877-3.151-7.877-7.877v-91.372c0-4.726,3.151-7.877,7.877-7.877
	h140.209c4.726,0,7.877,3.151,7.877,7.877v92.16C504.123,287.62,500.972,290.771,496.246,290.771z M363.914,275.017h124.455v-76.406
	H363.914V275.017z"/>
<polygon style="fill:#FFFFFF;" points="356.037,282.894 426.142,223.029 496.246,282.894 "/>
<path style="fill:#183651;" d="M496.246,290.771H356.037c-3.151,0-6.302-2.363-7.089-5.514c-0.788-3.151,0-6.302,2.363-8.665
	l70.105-60.652c3.151-2.363,7.089-2.363,10.24,0l70.105,60.652c2.363,2.363,3.151,5.514,2.363,8.665
	C502.548,289.195,499.397,290.771,496.246,290.771z M377.305,275.017h98.462l-48.837-42.535L377.305,275.017z"/>
<polygon style="fill:#E0E4E8;" points="496.246,191.521 426.142,254.537 356.037,191.521 "/>
<path style="fill:#183651;" d="M426.142,262.414c-1.575,0-3.938-0.788-5.514-2.363l-70.105-63.015
	c-2.363-2.363-3.151-5.514-2.363-8.665c0.788-3.151,3.938-4.726,7.089-4.726h140.209c3.151,0,6.302,2.363,7.089,4.726
	c0.788,3.151,0,6.302-2.363,8.665l-70.105,63.803C430.08,262.414,427.717,262.414,426.142,262.414z M375.729,199.398l49.625,44.898
	l49.625-44.898H375.729z"/>
<rect x="356.037" y="327.004" style="fill:#FFFFFF;" width="140.209" height="92.16"/>
<path style="fill:#183651;" d="M496.246,426.254H356.037c-4.726,0-7.877-3.151-7.877-7.877v-91.372c0-4.726,3.151-7.877,7.877-7.877
	h140.209c4.726,0,7.877,3.151,7.877,7.877v92.16C504.123,423.103,500.972,426.254,496.246,426.254z M363.914,410.5h124.455v-75.618
	H363.914V410.5z"/>
<polygon style="fill:#FFFFFF;" points="356.037,418.377 426.142,358.512 496.246,418.377 "/>
<path style="fill:#183651;" d="M496.246,426.254H356.037c-3.151,0-6.302-2.363-7.089-5.514c-0.788-3.151,0-6.302,2.363-8.665
	l70.105-60.652c3.151-2.363,7.089-2.363,10.24,0l70.105,60.652c2.363,2.363,3.151,5.514,2.363,8.665
	C502.548,424.678,499.397,426.254,496.246,426.254z M377.305,410.5h98.462l-48.837-42.535L377.305,410.5z"/>
<polygon style="fill:#E0E4E8;" points="496.246,327.004 426.142,390.808 356.037,327.004 "/>
<path style="fill:#183651;" d="M426.142,398.684c-1.575,0-3.938-0.788-5.514-2.363l-70.105-63.803
	c-2.363-2.363-3.151-5.514-2.363-8.665c0.788-3.151,3.938-4.726,7.089-4.726h140.209c3.151,0,6.302,2.363,7.089,4.726
	c0.788,3.151,0,6.302-2.363,8.665l-70.105,63.803C430.08,397.897,427.717,398.684,426.142,398.684z M375.729,334.881l49.625,44.898
	l49.625-44.898H375.729z"/>
<rect x="216.615" y="93.848" style="fill:#183651;" width="138.634" height="15.754"/>
<rect x="216.615" y="229.331" style="fill:#183651;" width="138.634" height="15.754"/>
<rect x="216.615" y="364.814" style="fill:#183651;" width="138.634" height="15.754"/>
<rect x="65.378" y="82.032" style="fill:#FFFFFF;" width="39.385" height="39.385"/>
<path style="fill:#183651;" d="M112.64,129.294H57.502V74.155h55.138V129.294z M73.255,113.54h23.631V89.909H73.255V113.54z"/>
<rect x="65.378" y="217.515" style="fill:#FFFFFF;" width="39.385" height="39.385"/>
<path style="fill:#183651;" d="M112.64,264.777H57.502v-55.138h55.138V264.777z M73.255,249.023h23.631v-23.631H73.255V249.023z"/>
<rect x="65.378" y="352.998" style="fill:#FFFFFF;" width="39.385" height="39.385"/>
<path style="fill:#183651;" d="M112.64,400.26H57.502v-55.138h55.138V400.26z M73.255,384.506h23.631v-23.631H73.255V384.506z"/>
<rect x="134.695" y="74.155" style="fill:#183651;" width="47.262" height="15.754"/>
<rect x="134.695" y="113.54" style="fill:#183651;" width="47.262" height="15.754"/>
<rect x="134.695" y="209.638" style="fill:#183651;" width="47.262" height="15.754"/>
<rect x="134.695" y="249.023" style="fill:#183651;" width="47.262" height="15.754"/>
<rect x="134.695" y="345.121" style="fill:#183651;" width="47.262" height="15.754"/>
<rect x="134.695" y="384.506" style="fill:#183651;" width="47.262" height="15.754"/>
<g>
</g>
<g>
</g>
<g>
</g>
<g>
</g>
<g>
</g>
<g>
</g>
<g>
</g>
<g>
</g>
<g>
</g>
<g>
</g>
<g>
</g>
<g>
</g>
<g>
</g>
<g>
</g>
<g>
</g>
</svg>
