<svg height="499pt" viewBox="-22 1 499 499.999" width="499pt" xmlns="http://www.w3.org/2000/svg"><path d="m397.691406 124.40625h-377.726562c-10.707032 0-19.464844-8.757812-19.464844-19.464844v-85.476562c0-10.703125 8.757812-19.464844 19.464844-19.464844h377.726562c10.707032 0 19.464844 8.761719 19.464844 19.464844v85.476562c0 10.707032-8.757812 19.464844-19.464844 19.464844zm0 0" fill="#dfe8f4"/><path d="m355.230469 68.203125h-76.613281c-3.316407 0-6-2.6875-6-6s2.683593-6 6-6h76.613281c3.3125 0 6 2.6875 6 6s-2.683594 6-6 6zm0 0" fill="#4d28a8"/><path d="m397.148438 170.082031h-376.640626c-11.003906 0-20.007812 8.976563-20.007812 19.945313v84.519531c0 10.96875 9.003906 19.945313 20.007812 19.945313h263.394532c5.929687-29.703126 31.65625-52.054688 62.503906-52.054688 29.683594 0 54.628906 20.703125 61.746094 48.734375 5.414062-3.578125 9.007812-9.703125 9.007812-16.625v-84.519531c-.003906-10.96875-9.007812-19.945313-20.011718-19.945313zm0 0" fill="#dfe8f4"/><path d="m238.308594 355.378906c-.011719-5.644531 1.695312-10.886718 4.609375-15.214844h-222.410157c-11.003906 0-20.007812 8.976563-20.007812 19.945313v84.519531c0 10.96875 9.003906 19.945313 20.007812 19.945313h217.800782zm0 0" fill="#dfe8f4"/><path d="m429.820312 328.511719h-165.257812c-14.511719 0-26.285156 12.050781-26.253906 26.867187v117.785156c0 14.816407 11.804687 26.835938 26.316406 26.835938l82.953125-.050781 80.667969-.046875c14.511718 0 26.285156-12.019532 26.253906-26.835938v-117.816406c0-14.238281-10.921875-25.871094-24.679688-26.738281zm0 0" fill="#0795ff"/><path d="m267.332031 328.511719h-2.769531c-14.511719 0-26.285156 12.050781-26.253906 26.867187v117.785156c0 14.816407 11.804687 26.835938 26.316406 26.835938l82.953125-.050781v-171.4375zm0 0" fill="#3eb6ff"/><path d="m410.191406 313.710938c-3.40625 0-6.167968-2.753907-6.167968-6.148438 0-32.523438-25.847657-58.980469-57.621094-58.980469-31.769532 0-57.621094 26.457031-57.621094 58.980469 0 3.394531-2.761719 6.148438-6.167969 6.148438s-6.167969-2.753907-6.167969-6.148438c0-39.300781 31.382813-71.273438 69.957032-71.273438 38.574218 0 69.957031 31.972657 69.957031 71.273438 0 3.394531-2.761719 6.148438-6.167969 6.148438zm0 0" fill="#4d28a8"/><path d="m346.40625 248.582031c-31.773438 0-57.621094 26.457031-57.621094 58.980469 0 3.394531-2.761718 6.148438-6.167968 6.148438s-6.167969-2.753907-6.167969-6.148438c0-39.300781 31.378906-71.273438 69.953125-71.273438" fill="#623add"/><path d="m364.972656 388.980469c-3.15625-8.683594-11.472656-14.210938-20.480468-14.527344-.269532-.007813-.539063-.027344-.808594-.027344-6.050782 0-11.945313 2.605469-15.714844 7.457031-9.59375 12.367188-5.328125 27.449219 5.117188 34.015626l.015624 21.765624c.003907 6.445313 5.101563 11.671876 11.390626 11.683594h.027343c6.300781 0 11.410157-5.238281 11.40625-11.691406l-.007812-21.769531c8.496093-5.351563 12.890625-16.339844 9.054687-26.90625zm0 0" fill="#fff"/></svg>