<?xml version="1.0" encoding="iso-8859-1"?>
<!-- Generator: Adobe Illustrator 19.0.0, SVG Export Plug-In . SVG Version: 6.00 Build 0)  -->
<svg version="1.1" id="Capa_1" xmlns="http://www.w3.org/2000/svg" xmlns:xlink="http://www.w3.org/1999/xlink" x="0px" y="0px"
	 viewBox="0 0 512 512" style="enable-background:new 0 0 512 512;" xml:space="preserve">
<path style="fill:#242D3C;" d="M361.636,31.538H179.924c-17.183,0-31.288,14.08-31.288,31.306v386.33
	c0,17.211,14.106,31.288,31.288,31.288h181.711c17.198,0,31.247-14.077,31.247-31.288V62.847
	C392.883,45.618,378.831,31.538,361.636,31.538z"/>
<rect x="166.351" y="99.416" style="fill:#F15424;" width="208.896" height="313.19"/>
<g>
	<path style="fill:#3E4959;" d="M251.464,456.239c-4.69,0-8.448-3.814-8.448-8.433v-2.542c0-4.634,3.758-8.42,8.448-8.42h38.702
		c4.59,0,8.348,3.786,8.348,8.42v2.542c0,4.618-3.758,8.433-8.348,8.433H251.464z"/>
	<path style="fill:#3E4959;" d="M278.646,65.473c0,4.339-3.441,7.862-7.795,7.862c-4.367,0-7.933-3.523-7.933-7.862
		c0-4.342,3.566-7.905,7.933-7.905C275.205,57.565,278.646,61.129,278.646,65.473z"/>
</g>
<path style="fill:#242D3C;" d="M273.938,65.473c0,1.713-1.403,3.121-3.087,3.121c-1.815,0-3.241-1.408-3.241-3.121
	c0-1.733,1.426-3.174,3.241-3.174C272.535,62.299,273.938,63.74,273.938,65.473z"/>
<g>
	<rect x="231.629" y="120.526" style="fill:#E6E5E5;" width="280.371" height="155.635"/>
	<polygon style="fill:#E6E5E5;" points="492.434,312.232 492.434,276.164 456.369,276.164 	"/>
</g>
<rect x="251.187" y="140.095" style="fill:#06B2B8;" width="241.254" height="116.498"/>
<path style="fill:#21D8DE;" d="M479.565,230.417c-7.363,0-13.309,5.955-13.309,13.302H277.371c0-7.35-5.955-13.302-13.312-13.302
	v-64.148c7.357,0,13.312-5.957,13.312-13.304h188.884c0,7.35,5.947,13.304,13.309,13.304V230.417z"/>
<g>
	<path style="fill:#06B2B8;" d="M371.814,234.003c-19.658,0-35.653-15.992-35.653-35.661c0-19.666,15.995-35.658,35.653-35.658
		c19.653,0,35.648,15.995,35.648,35.658C407.462,218.011,391.468,234.003,371.814,234.003z M371.814,170.827
		c-15.168,0-27.51,12.347-27.51,27.517c0,15.165,12.342,27.515,27.51,27.515c15.171,0,27.512-12.349,27.512-27.515
		C399.327,183.174,386.985,170.827,371.814,170.827z"/>
	<path style="fill:#06B2B8;" d="M375.496,202.426h-7.383c-3.372,0-6.566-1.316-8.973-3.712c-2.406-2.429-3.702-5.612-3.702-8.98
		c0-3.379,1.295-6.559,3.686-8.955c2.419-2.417,5.604-3.738,8.988-3.738h7.396v8.148h-7.396c-1.208,0-2.36,0.476-3.231,1.339
		c-0.837,0.85-1.313,1.997-1.313,3.208c0,1.213,0.476,2.363,1.329,3.236c0.845,0.84,2.007,1.313,3.215,1.313h7.383L375.496,202.426
		L375.496,202.426z"/>
	<path style="fill:#06B2B8;" d="M388.198,189.731h-8.146c0-1.213-0.479-2.371-1.354-3.238c-0.837-0.837-1.984-1.306-3.19-1.306
		v-8.148c3.372,0,6.554,1.308,8.95,3.694C386.87,183.159,388.198,186.349,388.198,189.731z"/>
	<path style="fill:#06B2B8;" d="M368.12,219.642c-3.374,0-6.546-1.306-8.952-3.679c-2.417-2.432-3.73-5.619-3.73-9.006h8.133
		c0,1.216,0.484,2.365,1.349,3.238c0.847,0.832,1.989,1.303,3.2,1.303V219.642z"/>
	<path style="fill:#06B2B8;" d="M375.496,219.642h-7.375v-8.143h7.375c1.213,0,2.365-0.474,3.21-1.321
		c0.87-0.87,1.347-2.015,1.347-3.218c0-1.198-0.479-2.348-1.354-3.231c-0.829-0.827-1.989-1.306-3.203-1.306v-8.143
		c3.377,0,6.564,1.313,8.963,3.694c2.412,2.442,3.74,5.622,3.74,8.983c0,3.366-1.329,6.546-3.72,8.963
		C382.075,218.331,378.888,219.642,375.496,219.642z"/>
	<rect x="367.718" y="173.731" style="fill:#06B2B8;" width="8.146" height="49.224"/>
	<rect x="418.714" y="194.275" style="fill:#06B2B8;" width="31.002" height="8.143"/>
	<rect x="293.888" y="194.275" style="fill:#06B2B8;" width="31.027" height="8.143"/>
</g>
<path style="fill:#E6E5E5;" d="M258.908,318.363c3.041-0.008,6.093,1.175,8.42,3.482c2.314,2.335,3.494,5.368,3.494,8.438
	l-0.015,138.273c0.015,3.044-1.165,6.121-3.487,8.425c-2.327,2.36-5.373,3.477-8.422,3.477H39.565c-3.046,0-6.09-1.134-8.422-3.466
	c-2.299-2.314-3.479-5.389-3.479-8.435l0.008-138.273c0-3.057,1.16-6.095,3.479-8.438c2.324-2.307,5.384-3.464,8.415-3.482
	C39.565,318.363,258.908,318.363,258.908,318.363z"/>
<g>
	<rect x="57.938" y="449" style="fill:#242D3C;" width="38.019" height="8.23"/>
	<rect x="106.12" y="449" style="fill:#242D3C;" width="38.021" height="8.202"/>
	<polygon style="fill:#242D3C;" points="192.356,457.228 154.335,457.202 154.335,449 192.356,449 	"/>
	<polygon style="fill:#242D3C;" points="240.535,457.228 202.537,457.228 202.516,449 240.535,449 	"/>
</g>
<g>
	<rect x="57.938" y="400.129" style="fill:#FFFFFF;" width="38.019" height="25.754"/>
	<rect x="106.12" y="400.129" style="fill:#FFFFFF;" width="38.021" height="25.754"/>
</g>
<rect x="27.668" y="342.12" style="fill:#242D3C;" width="243.149" height="34.327"/>
<g>
	<rect x="232.192" y="355.124" style="fill:#FFFFFF;" width="8.353" height="8.353"/>
	<rect x="215.475" y="355.124" style="fill:#FFFFFF;" width="8.356" height="8.353"/>
	<rect x="198.758" y="355.124" style="fill:#FFFFFF;" width="8.353" height="8.353"/>
</g>
<g>
	<rect y="162.74" style="fill:#D9D8D7;" width="114.683" height="72.422"/>
	<polygon style="fill:#D9D8D7;" points="9.047,253.8 27.668,235.178 9.047,235.178 	"/>
</g>
<g>
	<rect x="76.224" y="192.667" style="fill:#242D3C;" width="12.585" height="12.582"/>
	<rect x="51.046" y="192.667" style="fill:#242D3C;" width="12.585" height="12.582"/>
	<rect x="25.882" y="192.667" style="fill:#242D3C;" width="12.585" height="12.582"/>
</g>
<g>
</g>
<g>
</g>
<g>
</g>
<g>
</g>
<g>
</g>
<g>
</g>
<g>
</g>
<g>
</g>
<g>
</g>
<g>
</g>
<g>
</g>
<g>
</g>
<g>
</g>
<g>
</g>
<g>
</g>
</svg>
