<?xml version="1.0" encoding="iso-8859-1"?>
<!-- Generator: Adobe Illustrator 19.0.0, SVG Export Plug-In . SVG Version: 6.00 Build 0)  -->
<svg version="1.1" id="Capa_1" xmlns="http://www.w3.org/2000/svg" xmlns:xlink="http://www.w3.org/1999/xlink" x="0px" y="0px"
	 viewBox="0 0 490.506 490.506" style="enable-background:new 0 0 490.506 490.506;" xml:space="preserve">
<path style="fill:#C9EAFF;" d="M133.967,490.506c-20.442,0-37.071-16.628-37.071-37.071L96.895,37.076
	C96.895,16.634,113.524,0,133.966,0h222.572c20.443,0,37.072,16.634,37.072,37.076l0.001,416.359
	c0,20.443-16.63,37.071-37.071,37.071H133.967z"/>
<path style="fill:#4DC1FF;" d="M370.524,87.9v313.019c0,10.242-8.393,18.633-18.635,18.633H138.601
	c-10.24,0-18.634-8.391-18.634-18.633V87.9c0-10.241,8.394-18.634,18.634-18.634H351.89C362.132,69.267,370.524,77.659,370.524,87.9
	z"/>
<g>
	<path style="fill:#0A5BC8;" d="M351.155,316.276c0,2.555-1.034,4.865-2.714,6.527c-1.661,1.682-3.972,2.713-6.528,2.713h-14.278
		c1.085-2.994,1.924-6.073,2.538-9.24c0.734-3.026,1.276-6.105,1.627-9.24h10.113C347.006,307.036,351.155,311.184,351.155,316.276z
		"/>
	<path style="fill:#0A5BC8;" d="M163.781,325.517h-11.024c-5.11,0-9.24-4.13-9.24-9.24c0-5.093,4.13-9.24,9.24-9.24h6.843
		c0.367,3.135,0.91,6.214,1.645,9.24C161.857,319.443,162.697,322.523,163.781,325.517z"/>
</g>
<path style="fill:#FFB100;" d="M323.094,297.418c0,1.616-0.079,3.233-0.155,4.851c-0.077,1.616-0.23,3.232-0.462,4.774
	c-0.31,3.156-0.925,6.237-1.693,9.239h-150.15c-0.771-3.002-1.386-6.083-1.694-9.239c-0.23-1.542-0.385-3.158-0.462-4.774
	c-0.077-1.617-0.153-3.234-0.153-4.851c0-12.013,2.771-23.409,7.623-33.571c7.699-15.709,20.48-28.491,36.189-36.191
	c10.164-4.851,21.561-7.623,33.572-7.623s23.407,2.772,33.57,7.623c15.709,7.7,28.492,20.482,36.191,36.191
	C320.321,274.009,323.094,285.405,323.094,297.418z"/>
<g>
	<path style="fill:#FFFFFF;" d="M245.699,210.787c-47.81,0-86.625,38.886-86.625,86.624c0,3.256,0.175,6.458,0.525,9.625
		c0.367,3.135,0.91,6.214,1.645,9.24h9.38c-0.77-2.992-1.383-6.072-1.68-9.24c-0.245-1.54-0.386-3.149-0.473-4.76
		c-0.07-1.629-0.157-3.238-0.157-4.865c0-12.004,2.782-23.396,7.63-33.564c7.63-15.784,20.405-28.56,36.19-36.19
		c10.167-4.848,21.56-7.63,33.564-7.63c12.022,0,23.415,2.782,33.583,7.63c15.784,7.631,28.561,20.406,36.189,36.19
		c4.847,10.168,7.611,21.561,7.611,33.564c0,1.627-0.068,3.236-0.14,4.865c-0.085,1.61-0.244,3.22-0.472,4.76
		c-0.297,3.168-0.926,6.248-1.699,9.24h9.4c0.734-3.026,1.276-6.105,1.627-9.24c0.348-3.167,0.524-6.369,0.524-9.625
		C332.324,249.673,293.44,210.787,245.699,210.787z"/>
	<path style="fill:#FFFFFF;" d="M307.692,297.418c0,6.62-1.002,12.936-2.926,18.864H186.571c-1.925-5.929-2.926-12.244-2.926-18.864
		c0-34.265,27.797-61.985,62.063-61.985C279.973,235.433,307.692,263.153,307.692,297.418z"/>
</g>
<g>
	<path style="fill:#FFB100;" d="M237.546,316.282h-17.248c-0.231-0.385-0.386-0.848-0.539-1.23
		c-0.539-1.695,0.848-3.467,2.694-3.467h10.011c1,0,1.924,0.541,2.387,1.463C235.467,314.28,236.314,315.358,237.546,316.282z"/>
	<path style="fill:#FFB100;" d="M271.733,311.585c0,1.617-0.23,3.158-0.691,4.697h-16.403c0.771-0.77,1.08-1.694,1.08-2.693
		c0-3.158-1.618-4.775-13.938-7.316c-15.707-3.311-21.252-9.702-21.252-18.018c0-7.623,4.621-15.016,15.939-17.48
		c1.231-0.307,2.232-1.384,2.232-2.617v-2.848c0-1.541,1.156-2.697,2.695-2.697h7.392c1.542,0,2.696,1.156,2.696,2.697v2.848
		c0,1.309,1,2.387,2.232,2.617c9.395,2.08,14.091,7.471,15.631,12.551c0.615,1.771-0.694,3.62-2.54,3.62h-10.011
		c-1.002,0-2.078-0.538-2.465-1.463c-1.002-2.157-3.156-4.621-10.395-4.621c-6.775,0-8.085,2.851-8.085,4.852
		c0,3.003,2.156,4.621,12.167,6.546C267.575,296.108,271.733,303.039,271.733,311.585z"/>
</g>
<g>
	<circle style="fill:#4DC1FF;" cx="247.448" cy="452.868" r="14.09"/>
	<path style="fill:#4DC1FF;" d="M272.56,37.028h-50.464c-2.554,0-4.621-2.067-4.621-4.616c0-2.55,2.067-4.618,4.621-4.618h50.464
		c2.553,0,4.621,2.068,4.621,4.618C277.181,34.961,275.112,37.028,272.56,37.028z"/>
</g>
<path style="fill:#FFC23D;" d="M330.173,316.276c-0.614,3.167-1.453,6.246-2.538,9.24h-9.853c0.542-1.541,1.155-2.994,1.609-4.531
	c0.473-1.542,0.927-3.169,1.381-4.709L330.173,316.276L330.173,316.276z"/>
<path style="fill:#F6921E;" d="M320.783,316.282c-0.462,1.541-0.925,3.158-1.388,4.697c-0.461,1.54-1.076,3.003-1.617,4.543h-16.785
	c1.541-2.926,2.771-6.006,3.773-9.24H320.783z"/>
<path style="fill:#FFC23D;" d="M304.767,316.282c-1.002,3.234-2.232,6.314-3.773,9.24h-37.191c3.851-2.388,6.238-5.621,7.24-9.24
	H304.767z"/>
<path style="fill:#F6921E;" d="M271.042,316.282c-1.002,3.619-3.39,6.853-7.24,9.24h-35.649c-3.928-2.463-6.546-5.775-7.854-9.24
	h17.248c2.002,1.541,5.004,2.464,9.625,2.464c3.85,0,6.314-1.001,7.468-2.464H271.042z"/>
<path style="fill:#FFC23D;" d="M228.152,325.523h-37.808c-1.54-2.926-2.771-6.006-3.773-9.24h33.727
	C221.607,319.747,224.225,323.06,228.152,325.523z"/>
<path style="fill:#F6921E;" d="M190.345,325.523h-16.709c-0.615-1.463-1.154-3.003-1.617-4.543
	c-0.462-1.539-0.924-3.156-1.386-4.697h15.938C187.573,319.517,188.805,322.597,190.345,325.523z"/>
<g>
	<path style="fill:#FFC23D;" d="M173.635,325.517h-9.854c-1.084-2.994-1.924-6.073-2.537-9.24h9.38
		c0.473,1.54,0.928,3.167,1.399,4.709C172.48,322.523,173.022,324.065,173.635,325.517z"/>
	<path style="fill:#FFC23D;" d="M254.639,316.282c-1.153,1.463-3.618,2.464-7.468,2.464c-4.621,0-7.623-0.923-9.625-2.464H254.639z"
		/>
</g>
<g>
	<path style="fill:#FFFFFF;" d="M238.183,169.139h-9.381v-36.778c0-2.549-2.067-4.616-4.62-4.616s-4.621,2.067-4.621,4.616v36.778
		h-9.677c-1.785,0-2.692,2.148-1.446,3.429l13.379,13.745c1.289,1.324,3.419,1.314,4.696-0.021l13.131-13.737
		C240.871,171.27,239.96,169.139,238.183,169.139z"/>
	<path style="fill:#FFFFFF;" d="M280.376,141.883l-13.38-13.747c-1.29-1.323-3.419-1.313-4.694,0.022l-13.132,13.737
		c-1.229,1.285-0.317,3.415,1.46,3.415h9.379v36.273c0,2.549,2.067,4.616,4.621,4.616c2.553,0,4.621-2.067,4.621-4.616V145.31h9.676
		C280.714,145.311,281.62,143.162,280.376,141.883z"/>
</g>
<g>
</g>
<g>
</g>
<g>
</g>
<g>
</g>
<g>
</g>
<g>
</g>
<g>
</g>
<g>
</g>
<g>
</g>
<g>
</g>
<g>
</g>
<g>
</g>
<g>
</g>
<g>
</g>
<g>
</g>
</svg>
