<?xml version="1.0" encoding="iso-8859-1"?>
<!-- Generator: Adobe Illustrator 19.0.0, SVG Export Plug-In . SVG Version: 6.00 Build 0)  -->
<svg version="1.1" id="Capa_1" xmlns="http://www.w3.org/2000/svg" xmlns:xlink="http://www.w3.org/1999/xlink" x="0px" y="0px"
	 viewBox="0 0 512 512" style="enable-background:new 0 0 512 512;" xml:space="preserve">
<g>
	<g>
		<g>
			<path d="M245.76,208.64h4.771c10.559,0,19.136-8.525,19.2-19.084v-31.069c-0.189-10.422-8.66-18.789-19.084-18.851h-4.771
				c-10.559,0-19.136,8.525-19.2,19.084v31.069C226.866,200.211,235.336,208.579,245.76,208.64z M240.989,157.324
				c0.003-3.984,3.235-7.213,7.219-7.21c3.981,0.003,7.208,3.229,7.21,7.21v33.396c-0.003,3.984-3.235,7.213-7.219,7.21
				c-3.981-0.003-7.207-3.229-7.21-7.21V157.324z"/>
			<polygon points="189.091,207.476 205.964,207.476 205.964,170.356 225.164,117.76 209.455,117.76 197.818,152.669 
				186.182,117.76 168.844,117.76 189.324,170.356 			"/>
			<path d="M293.818,208.64c6.792-0.653,13.156-3.61,18.036-8.378v7.215h13.964v-67.84h-13.964v52.596c0,0-4.771,5.585-9.309,5.585
				c-4.538,0-4.771-3.607-4.771-3.607v-54.575h-14.778v59.695C283.803,204.685,288.404,208.643,293.818,208.64z"/>
			<path d="M284.276,286.604c-2.804,0.137-5.422,1.446-7.215,3.607v48.175c1.841,2.036,4.47,3.181,7.215,3.142
				c7.215,0,7.215-8.029,7.215-8.029v-38.865C291.491,294.633,290.211,286.604,284.276,286.604z"/>
			<path d="M256,0C114.615,0,0,114.615,0,256s114.615,256,256,256s256-114.615,256-256S397.385,0,256,0z M256,488.727
				C127.468,488.727,23.273,384.532,23.273,256S127.468,23.273,256,23.273S488.727,127.468,488.727,256S384.532,488.727,256,488.727
				z"/>
			<path d="M339.549,286.604c-7.215,0-7.215,8.029-7.215,8.029v10.356h14.429v-10.356
				C346.764,294.633,346.764,286.604,339.549,286.604z"/>
			<path d="M344.926,223.52c-0.202,0.003-0.404,0.008-0.606,0.015h-0.233c0,0-43.869-2.444-88.087-2.444
				c-44.218,0-88.32,2.327-88.32,2.327c-19.269-0.643-35.411,14.457-36.053,33.726c-0.013,0.394-0.02,0.789-0.019,1.183
				c-2.222,14.638-3.428,29.413-3.607,44.218c0.164,14.96,1.369,29.891,3.607,44.684c-0.011,19.28,15.61,34.918,34.89,34.928
				c0.394,0,0.789-0.006,1.183-0.019c0,0,43.404,2.327,88.32,2.327s88.32-2.327,88.32-2.327
				c19.269,0.643,35.411-14.457,36.053-33.726c0.013-0.394,0.02-0.789,0.019-1.183c2.227-14.794,3.432-29.724,3.607-44.684
				c-0.147-14.961-1.353-29.893-3.607-44.684C380.082,238.585,364.203,223.209,344.926,223.52z M203.753,262.516h-17.571v90.531
				h-17.338v-90.531h-17.571v-14.895h52.829L203.753,262.516z M249.484,353.047h-14.545v-6.865
				c-4.95,4.61-11.298,7.436-18.036,8.029c-5.413,0.113-10.058-3.833-10.822-9.193V273.92h15.011v66.444c0,0,0,3.491,4.771,3.491
				c4.771,0,9.658-5.702,9.658-5.702V273.92h14.429L249.484,353.047z M292.655,354.211c-6.121,0.055-11.906-2.794-15.593-7.68v6.516
				h-15.709V247.622h15.593v34.211c3.991-4.521,9.581-7.316,15.593-7.796c9.658,0,13.265,8.029,13.265,18.385l0.116,43.404
				C305.92,335.826,305.92,354.211,292.655,354.211z M362.356,316.742h-30.022v17.222c0,0,0,8.029,7.215,8.029
				c7.215,0,7.215-8.029,7.215-8.029v-8.146h15.593v12.567c-2.087,10.074-11.397,16.982-21.644,16.058
				c-10.614,0.956-20.399-5.796-23.273-16.058v-44.916c0.324-11.178,9.647-19.977,20.825-19.653c0.82,0.024,1.637,0.097,2.448,0.22
				c10.37-1.484,19.979,5.719,21.464,16.088c0.159,1.107,0.219,2.227,0.18,3.345V316.742z"/>
		</g>
	</g>
</g>
<g>
</g>
<g>
</g>
<g>
</g>
<g>
</g>
<g>
</g>
<g>
</g>
<g>
</g>
<g>
</g>
<g>
</g>
<g>
</g>
<g>
</g>
<g>
</g>
<g>
</g>
<g>
</g>
<g>
</g>
</svg>
